<svg xmlns="http://www.w3.org/2000/svg" width="120" height="120" viewBox="0 0 120 120"><defs><style>.a{fill:#fff;}</style></defs><path class="a" d="M123.52,368.5l-9.318,15.09-6.814-5.914,1.31-1.51,5.038,4.372,8.082-13.089ZM99.736,395.64,98.252,394.3l-4.5,4.971-4.971-4.5-1.342,1.484,4.971,4.5-4.5,4.971,1.483,1.342,4.5-4.971,4.971,4.5,1.342-1.484-4.971-4.5Zm42.5-44.807a1,1,0,0,0-.991-.958H131.6a1,1,0,0,0,0,2h7.151L130.8,359.6a7.648,7.648,0,0,0-1.369,9.066c2.7,5.021,1.413,10.5-3.932,16.746a16.131,16.131,0,0,1-11.167,4.962,12.2,12.2,0,0,1-9.325-3.551c-.014-.014-.033-.019-.047-.032-6.518-6.341-16.476-5.7-23.771,1.586-5.934,5.934-7.363,12.98-3.925,19.325a5.709,5.709,0,0,1-1.024,6.7l-3.669,3.668a1,1,0,1,0,1.414,1.414l3.665-3.663a7.723,7.723,0,0,0,1.376-9.069c-2.99-5.518-1.686-11.7,3.577-16.964,5.6-5.6,14.656-7.886,21.109-1.436.011.011.026.014.038.025a14,14,0,0,0,10.052,4c.2,0,.4,0,.6-.011,4.788-.168,9.858-2.442,12.616-5.66,5.862-6.851,7.267-13.241,4.177-18.989a5.652,5.652,0,0,1,1.007-6.7l8.047-7.827v8.532a1,1,0,0,0,2,0v-10.9Zm-34.825-26.409a60,60,0,1,0,60,60A60,60,0,0,0,107.415,324.424Zm0,118a58,58,0,1,1,58-58A58.066,58.066,0,0,1,107.415,442.424Z" transform="translate(-47.415 -324.424)"/></svg>