<svg xmlns="http://www.w3.org/2000/svg" width="120" height="120" viewBox="0 0 120 120"><defs><style>.a{fill:#fff;}</style></defs><g transform="translate(-7762 -1621)"><path class="a" d="M293.446,411.283a5.138,5.138,0,0,1-2.193-3.871,3.778,3.778,0,0,1,1.338-2.812c.559-.58.851-.913.851-1.557a2.3,2.3,0,0,0-.7-1.668,3.046,3.046,0,0,1-.885-2.027h2c0,.215.111.37.43.758a4.21,4.21,0,0,1,1.154,2.937,4.027,4.027,0,0,1-1.41,2.944c-.513.533-.781.835-.781,1.356a3.122,3.122,0,0,0,1.34,2.3Zm11.971-1.641a3.121,3.121,0,0,1-1.344-2.3c0-.52.269-.822.783-1.354a4.022,4.022,0,0,0,1.416-2.946,4.214,4.214,0,0,0-1.153-2.937c-.319-.388-.431-.543-.431-.758h-2a3.046,3.046,0,0,0,.885,2.027,2.3,2.3,0,0,1,.7,1.668c0,.643-.293.975-.853,1.556a3.772,3.772,0,0,0-1.344,2.814,5.131,5.131,0,0,0,2.2,3.871Zm8.694,0a3.119,3.119,0,0,1-1.34-2.3c0-.521.267-.823.781-1.356a4.028,4.028,0,0,0,1.41-2.944,4.214,4.214,0,0,0-1.153-2.937c-.32-.388-.431-.543-.431-.758h-2a3.042,3.042,0,0,0,.885,2.027,2.3,2.3,0,0,1,.7,1.668c0,.644-.292.977-.851,1.557a3.779,3.779,0,0,0-1.338,2.813,5.137,5.137,0,0,0,2.194,3.87ZM294.132,425.6a3.528,3.528,0,1,0-3.528,3.528A3.533,3.533,0,0,0,294.132,425.6Zm-2,0a1.528,1.528,0,1,1-1.528-1.529A1.53,1.53,0,0,1,292.132,425.6Zm13.68,0a3.528,3.528,0,1,0-3.527,3.528A3.532,3.532,0,0,0,305.812,425.6Zm-2,0a1.528,1.528,0,1,1-1.527-1.529A1.53,1.53,0,0,1,303.812,425.6Zm13.677,0a3.528,3.528,0,1,0-3.528,3.528A3.533,3.533,0,0,0,317.489,425.6Zm-2,0a1.528,1.528,0,1,1-1.528-1.529A1.53,1.53,0,0,1,315.489,425.6ZM358,421a60,60,0,1,1-113.234-27.629c.609-1.167,1.241-2.32,1.922-3.442.573-.942,1.178-1.864,1.8-2.772a60.374,60.374,0,0,1,6.759-8.2l.052-.054q.961-.977,1.968-1.9l.415-.4c.5-.459,1.025-.9,1.545-1.339q2.186-1.855,4.545-3.5,1.047-.73,2.129-1.415A59.952,59.952,0,0,1,358,421ZM251.21,388.071l.079.924a9.15,9.15,0,0,0,.718,2.857l.39.9.553.794a9.257,9.257,0,0,0,2.045,2.122l.744.561.968.439a9.178,9.178,0,0,0,2.819.772l.928.1,1.074-.115a9.194,9.194,0,0,0,2.818-.771l.955-.435.738-.554a9.3,9.3,0,0,0,2.064-2.144l.59-.853.353-.82A9.139,9.139,0,0,0,269.76,389l.093-1.107-.09-.737a9.1,9.1,0,0,0-.861-2.912l-.4-.828-.5-.679a9.34,9.34,0,0,0-2.187-2.141l-.6-.421-.871-.4a9.176,9.176,0,0,0-2.975-.785l-.818-.073-.864.074a9.159,9.159,0,0,0-2.057.423,58.4,58.4,0,0,0-6.209,7.072c-.042.218-.078.437-.1.659Zm29.08,87.094a2.959,2.959,0,1,0-2.959-2.959A2.962,2.962,0,0,0,280.29,475.165ZM356,421a57.966,57.966,0,0,0-90.139-48.252l-.107,6.24,9.547-5.728-5.722,9.545,11.1-.17-9.711,5.422,9.782,5.4-11.174-.219,5.693,9.547-9.521-5.682.185,11.117-5.406-9.726-5.413,9.714.183-11.119-9.542,5.758,5.731-9.609-4.451.087A57.965,57.965,0,0,0,276,474.656a4.908,4.908,0,0,1-.673-2.45,4.959,4.959,0,1,1,6.845,4.582A57.78,57.78,0,0,0,325,472.31l-4.264-12.06c-11.7.01-19.569.005-24.847-.015-5.946-.022-8.625-.063-9.873-.121l-2.675,7.609-1.886-.664,7.392-21.027a25,25,0,0,1-13.387-22.114v-4.642h7.121v-3.7H293.41v3.7H296.4v-3.7h10.831v3.7h2.846v-3.7H320.9v3.7h8.985v4.642a24.983,24.983,0,0,1-12.279,21.495l9.161,25.916A58.025,58.025,0,0,0,356,421Zm-78.542.276v2.642a22.907,22.907,0,0,0,.812,6.042h48.807a22.907,22.907,0,0,0,.812-6.042v-2.642Zm13.952-2.57v-1.135h-6.831v1.135Zm13.818,0v-1.135H298.4v1.135Zm13.676,0v-1.135h-6.83v1.135Zm-39.99,13.254a23.012,23.012,0,0,0,21.519,14.933h4.481a23.012,23.012,0,0,0,21.519-14.933ZM290.66,446.9l-3.96,11.265c4.541.077,21.2.094,33.327.085l-4.2-11.874a24.829,24.829,0,0,1-10.916,2.517h-4.481A24.853,24.853,0,0,1,290.66,446.9Z" transform="translate(7524 1260)"/></g></svg>