<svg xmlns="http://www.w3.org/2000/svg" width="120" height="119.999" viewBox="0 0 120 119.999"><defs><style>.a{fill:#fff;}</style></defs><path class="a" d="M75.292,257.382,74,256.086a17.6,17.6,0,0,1,12.472-30.017h.041a17.483,17.483,0,0,1,12.433,5.183q.183.185.361.373l1.252,1.333-1.8.336a29.019,29.019,0,0,0-23.074,22.3Zm11.182-29.306a15.6,15.6,0,0,0-12.269,25.23,31,31,0,0,1,22.317-21.571A15.563,15.563,0,0,0,86.474,228.076Zm51.171,29.6-.376-1.785a29.018,29.018,0,0,0-22.757-22.507h-2.249l1.617-1.691q.2-.213.414-.42A17.6,17.6,0,1,1,138.947,256.4Zm-20.982-25.849a31,31,0,0,1,22.111,21.792,15.6,15.6,0,0,0-22.111-21.792Zm-9.1,32.7.107-21.508-2-.009-.1,20.948-8.585,14.015,1.705,1.045ZM82.234,300.016a3.8,3.8,0,0,1-2.7-1.117l-.374-.378a3.8,3.8,0,0,1-.011-5.375l5.421-5.377.7.6a28.991,28.991,0,0,0,4.975,3.455l1.174.645-6.492,6.43A3.8,3.8,0,0,1,82.234,300.016Zm2.441-9.534-4.1,4.064a1.806,1.806,0,0,0,0,2.563l.376.381a1.817,1.817,0,0,0,2.563-.005l4.614-4.569A30.971,30.971,0,0,1,84.675,290.482Zm45.648,9.769a3.807,3.807,0,0,1-2.7-1.117l-6.425-6.487,1.163-.637a29.388,29.388,0,0,0,4.974-3.442l.707-.6,5.355,5.41a3.821,3.821,0,0,1,0,5.393l-.379.374A3.8,3.8,0,0,1,130.323,300.251Zm-5.858-7.147,4.576,4.62a1.862,1.862,0,0,0,2.564,0l.379-.374a1.815,1.815,0,0,0,0-2.562l-4.059-4.1A31.482,31.482,0,0,1,124.465,293.1Zm-18.024,2.466a31.329,31.329,0,1,1,31.329-31.329A31.364,31.364,0,0,1,106.441,295.57Zm0-60.657a29.329,29.329,0,1,0,29.329,29.328A29.361,29.361,0,0,0,106.441,234.913Zm1.126,29.617.107-21.508-2-.009-.1,20.948-8.585,14.015,1.705,1.045Zm0,0,.107-21.508-2-.009-.1,20.948-8.585,14.015,1.705,1.045Zm58.968-1.281c0-.835-.029-1.663-.063-2.489a59.994,59.994,0,1,0-60.5,62.475c.188,0,.374.014.563.014.231,0,.459-.014.69-.017a60.058,60.058,0,0,0,59.246-57.461C166.506,264.934,166.535,264.1,166.535,263.249Zm-60,58a58,58,0,1,1,58-58A58.066,58.066,0,0,1,106.535,321.25Z" transform="translate(-46.535 -203.25)"/></svg>