<svg xmlns="http://www.w3.org/2000/svg" width="120" height="120" viewBox="0 0 120 120"><defs><style>.a{fill:#fff;}</style></defs><path class="a" d="M120.519,647.932h-4.19l7.4-19.8-2.811-1.049-7.79,20.853h-21.1l2.4,50.218H118.11Zm-4.08,43.316a45.308,45.308,0,0,1-16.367.2l3.532-9.457,13.27.188Zm-20.784-9.366,4.764.067-3.338,8.938c-.33-.07-.668-.144-1.006-.22Zm22.765-31.95-1.45,30.252-12.622-.179,11.234-30.073Zm-24.294,0h18.253L101.162,679.96l-5.6-.08Zm2.211,46.218-.163-3.413a52.237,52.237,0,0,0,11.333,1.374,52.964,52.964,0,0,0,8.834-.827l-.137,2.866ZM82.071,683.215a7.384,7.384,0,0,0,1.851-1.069c2.569-2.116,3.123-6.549,3.145-6.737l.5-3.708-2.22,2.91c-.01.007-.886.7-3.974-.5-1.491-.583-4.128-.812-6.424,3.111l-3.392.8,1.3,5.5a11.607,11.607,0,0,0-10.833,2.768c-4.012,3.687-3.827,14.337.366,21.1,2.325,3.753,5.454,5.689,9.056,5.689a11.944,11.944,0,0,0,4.063-.76c6.1,1.117,11.243-1.5,14.16-7.227,3.334-6.545,2.933-15.34-.858-18.825A11.74,11.74,0,0,0,82.071,683.215Zm-6.362-2.976c.974-2.446,2.626-5.168,4.933-4.268a9.89,9.89,0,0,0,4.1.83,7.662,7.662,0,0,1-2.087,3.8c-1.194.973-3.665,1.78-7.01,1.13l-.491-.1Zm12.175,23.949c-1.484,2.912-5.05,7.585-12.265,6.12l-.286-.058-.271.1c-5.668,2.173-9.1-.982-10.975-4.013-3.62-5.842-3.992-15.566-.706-18.585a9.612,9.612,0,0,1,10.461-1.782l1.51.665.017.076.073-.036.238.1-.047-.2.866-.43a9.772,9.772,0,0,1,10.95,1.586l0,0C90.538,690.575,90.747,698.567,87.884,704.188Zm59.167-29.513a2.365,2.365,0,0,0-1.37-1.505l-.1-.038a.363.363,0,0,1-.128-.268v-6.781l-7.009.785.135,1.012c2.034,15.28-6.929,23.2-10.3,26.183-.428.378-.769.681-.994.912-9.814,10.04-24.227,9.222-29.967,8.408l-.772-.11-1.695,4.159.295.441c.1.15.205.318.318.5,1.282,2.054,3.666,5.877,12.432,7.289a45.8,45.8,0,0,0,7.036.568c8.837,0,16.246-2.913,22.09-8.7C143.989,700.62,151.386,689.314,147.051,674.675Zm-11.438,31.433c-6.858,6.794-16.081,9.345-27.405,7.58-7.863-1.267-9.856-4.463-11.048-6.373l-.062-.1.713-1.749c6.485.8,20.872,1.169,30.9-9.092.2-.205.507-.474.89-.811,3.517-3.11,12.74-11.259,11.082-26.933l2.77-.311v4.556a2.368,2.368,0,0,0,1.465,2.167l.11.046a.346.346,0,0,1,.1.162C149.188,688.935,142.194,699.584,135.613,706.108ZM103.741,617.22a60,60,0,1,0,60,60A60,60,0,0,0,103.741,617.22Zm0,118a58,58,0,1,1,58-58A58.066,58.066,0,0,1,103.741,735.221Z" transform="translate(-43.741 -617.22)"/></svg>