<svg xmlns="http://www.w3.org/2000/svg" width="120" height="120" viewBox="0 0 120 120"><defs><style>.a{fill:#fff;}</style></defs><path class="a" d="M93.232,555.1l-1.393,1a23.1,23.1,0,0,1-17.658,2.971l-1.629-.387.431,1.618c1.009,3.785,5.034,6.265,9.785,6.265A13.968,13.968,0,0,0,84.9,566.4c5.464-.84,8.871-4.675,8.477-9.544Zm-8.64,9.323c-3.825.583-7.332-.68-8.935-3.03a25.173,25.173,0,0,0,15.657-2.675C90.822,561.677,88.338,563.844,84.592,564.42ZM73.1,537.518c-6.289.324-8.278,6.19-8.359,6.44a1,1,0,0,1-1.9-.614c.024-.074,2.472-7.427,10.16-7.824a1,1,0,0,1,.1,2Zm24.572,3a1,1,0,0,1-1.289,1.529,9.069,9.069,0,0,0-9.508-1.336,1,1,0,0,1-.818-1.824A11.077,11.077,0,0,1,97.675,540.517Zm-1.99,3.515a1,1,0,0,1-1.272.618,12.671,12.671,0,0,0-4.088-.667,15.335,15.335,0,0,0-5.133,1.2,1.018,1.018,0,0,1-.39.079,1,1,0,0,1-.392-1.921,17.422,17.422,0,0,1,5.85-1.36,13.863,13.863,0,0,1,4.807.775A1,1,0,0,1,95.685,544.032Zm-22.363,8.936c2.015-.22,3.331-2.8,3-5.872s-2.176-5.314-4.187-5.094a3.233,3.233,0,0,0-2.5,2.1,7.483,7.483,0,0,0-.5,3.769c.318,2.936,2.01,5.108,3.917,5.108A2.47,2.47,0,0,0,73.322,552.968Zm-2.2-5.31a5.557,5.557,0,0,1,.336-2.743c.242-.545.574-.891.889-.925a.455.455,0,0,1,.053,0c.66,0,1.705,1.248,1.931,3.325.231,2.131-.572,3.6-1.226,3.667C72.46,551.069,71.354,549.791,71.123,547.658Zm67.492-26.286c0-.017,0-.035,0-.053h0c-.294-3.388-5.5-3.316-12.1-3.234-6.629.09-14.88.2-19.33-3.185l-1.426-1.084-.174,1.784v.011h-.012c-.047.522-.066,1.044-.064,1.564,0,.246.02.487.03.731s.013.468.034.7a16.912,16.912,0,0,0,13.852,15.2,13.159,13.159,0,0,0,2.278.193c4.941,0,10-2.577,13.141-5.461,2.571-2.357,3.9-4.862,3.768-7.075.007-.028.018-.054.025-.081Zm-12.071-1.287c4.477-.058,9.516-.122,10.026,1.238a14.749,14.749,0,0,1-1.76,3.879,33.343,33.343,0,0,1-26.888-4.616q-.139-.581-.232-1.167l-.007-.041c-.052-.336-.087-.673-.116-1.011-.012-.151-.021-.3-.028-.454s-.011-.284-.014-.426C112.629,520.269,120.276,520.169,126.544,520.085Zm-6.771,11.747a14.863,14.863,0,0,1-10.815-8.26,35.057,35.057,0,0,0,23.825,4.1C129.531,530.331,124.337,532.635,119.773,531.832ZM114,505.726h-.016c-3.435.011-5.745,3.714-5.842,3.873l-.876,1.429,13.822.757-1.015-1.632C118.246,507.216,116.2,505.726,114,505.726Zm-3,3.5a4.512,4.512,0,0,1,2.992-1.5h0a4.392,4.392,0,0,1,3.188,1.842Zm23.133,1.4c-2.018-.651-4.251-.1-6.639,1.649l-1.607,1.175,13.533,4.188-.6-1.837C138.77,515.638,137.448,511.7,134.137,510.63Zm-3.59,2.172a4.2,4.2,0,0,1,2.969-.272,4.846,4.846,0,0,1,2.382,1.927Zm-24.434-6.059a1,1,0,0,1-.794-1.606c.048-.062,4.819-6.161,12.193-3.974a1,1,0,0,1-.571,1.918c-6.028-1.794-9.875,3.065-10.035,3.273A1,1,0,0,1,106.113,506.743Zm25.464-.931a1,1,0,0,1,1.085-.908c7.667.686,9.846,8.122,9.867,8.2a1,1,0,0,1-.692,1.233,1.013,1.013,0,0,1-.271.037,1,1,0,0,1-.962-.728c-.079-.273-1.858-6.188-8.12-6.748A1,1,0,0,1,131.577,505.812Zm21.236,20.536c-.462-1.943-2.122-3.663-4.019-5.064a26.732,26.732,0,0,0-11.1-28.31,26.8,26.8,0,0,0-39.671,32.65,27.03,27.03,0,0,0,2.388,4.4,26.77,26.77,0,1,0,3.241,3.986,26.88,26.88,0,0,0,4.078,3.4,26.577,26.577,0,0,0,14.943,4.577h.076A26.7,26.7,0,0,0,143.8,531.721a6.888,6.888,0,0,0,.87.634,4.93,4.93,0,0,0,2.556.749,5.747,5.747,0,0,0,4.213-2.145A4.929,4.929,0,0,0,152.813,526.348ZM81.336,573.61a24.795,24.795,0,1,1,24.795-24.795A24.823,24.823,0,0,1,81.336,573.61Zm52.886-36.449a24.789,24.789,0,0,1-11.476,2.826h-.069a24.793,24.793,0,1,1,22.885-34.447,25.07,25.07,0,0,1,1.462,14.556,34.9,34.9,0,0,0-5.17-2.565l-.013-.006-.987-.4-.336,1.01c-.015.045-.026.092-.041.137a11.292,11.292,0,0,0-.509,2.292c-.01.08-.02.16-.029.24-.015.157-.03.314-.04.473a12.856,12.856,0,0,0,.207,3.4,13.326,13.326,0,0,0,2.313,5.565A25.021,25.021,0,0,1,134.222,537.161Zm15.73-7.544c-1.393,1.538-2.825,1.885-4.256,1.024a5.49,5.49,0,0,1-1.277-1.111,9.225,9.225,0,0,1-.692-.93c-.035-.053-.07-.1-.1-.16a9.484,9.484,0,0,1-.533-.976c-.032-.068-.063-.137-.094-.205-.173-.382-.33-.773-.465-1.173-.021-.061-.039-.124-.059-.186a13,13,0,0,1-.341-1.279c-.013-.059-.021-.119-.032-.179-.051-.243-.088-.487-.122-.732-.026-.189-.049-.379-.066-.57-.021-.248-.036-.5-.04-.744,0-.1,0-.21,0-.315a10.938,10.938,0,0,1,.258-2.265,33.726,33.726,0,0,1,4.964,2.722c1.837,1.262,3.418,2.754,3.779,4.274A3.008,3.008,0,0,1,149.952,529.617ZM103.741,472a60,60,0,1,1-60,60A60,60,0,0,1,103.741,472Zm0,2a58,58,0,1,0,58,58A58.065,58.065,0,0,0,103.741,474Z" transform="translate(-43.741 -472.004)"/></svg>