<svg xmlns="http://www.w3.org/2000/svg" viewBox="0 0 66 66"><defs><style>.cls-1{fill:#272727;}</style></defs><g id="ICONS_ESAG" data-name="ICONS ESAG"><path class="cls-1" d="M23.67,16.93,21.33,12.2,19,16.93l-5.22.76,3.78,3.68-.89,5.2,4.66-2.45L26,26.57l-.89-5.2,3.78-3.68Zm-.32,6-2-1.05-2,1.05.39-2.24-1.63-1.58,2.25-.33,1-2,1,2,2.25.33L23,20.67Z"/><path class="cls-1" d="M46,31.65l2.92,1.53-.56-3.25,2.36-2.3-3.26-.47L46,24.2l-1.46,3-3.26.47,2.36,2.3L43,33.18ZM45.82,29l.13-.27.13.27.29,0-.21.21.05.29L46,29.39l-.26.14.05-.29L45.53,29Z"/><path class="cls-1" d="M19.6,40.18a2.24,2.24,0,0,0,0,3.4,2.64,2.64,0,0,0,3.47,0,2.24,2.24,0,0,0,0-3.4A2.63,2.63,0,0,0,19.6,40.18Zm2.14,1.91a.65.65,0,0,1-.81,0,.26.26,0,0,1-.11-.21.29.29,0,0,1,.1-.21.66.66,0,0,1,.41-.14.62.62,0,0,1,.41.14.31.31,0,0,1,.11.21A.29.29,0,0,1,21.74,42.09Z"/><path class="cls-1" d="M30.32,30.46a3.34,3.34,0,0,0,0,5.08,4.09,4.09,0,0,0,5.36,0h0a3.34,3.34,0,0,0,0-5.08A4.08,4.08,0,0,0,30.32,30.46Zm4,3.59a2.11,2.11,0,0,1-2.7,0,1.35,1.35,0,0,1,0-2.1,2.1,2.1,0,0,1,2.7,0,1.35,1.35,0,0,1,0,2.1Z"/><path class="cls-1" d="M46.69,40.12A2.5,2.5,0,0,0,45.83,42a2.54,2.54,0,0,0,.86,1.89,3,3,0,0,0,3.89,0A2.54,2.54,0,0,0,51.44,42a2.5,2.5,0,0,0-.86-1.88A3,3,0,0,0,46.69,40.12Zm2.56,2.27a1,1,0,0,1-1.23,0,.5.5,0,0,1,0-.78h0a.9.9,0,0,1,.61-.22.92.92,0,0,1,.62.22.5.5,0,0,1,0,.78Z"/><path class="cls-1" d="M33,0A33,33,0,1,0,66,33,33,33,0,0,0,33,0Zm0,64A31,31,0,1,1,64,33,31,31,0,0,1,33,64Z"/><path class="cls-1" d="M33,3.14A29.9,29.9,0,0,0,3.27,30.28,3.74,3.74,0,0,0,3.17,32c0,.32,0,.64,0,1A29.86,29.86,0,1,0,33,3.14ZM56.43,19.6a.52.52,0,0,1-.2.39A1,1,0,0,1,55,20a.52.52,0,0,1-.19-.39.54.54,0,0,1,.19-.39,1,1,0,0,1,.62-.22,1,1,0,0,1,.61.22A.52.52,0,0,1,56.43,19.6ZM5.48,30.33A1,1,0,0,1,6.23,30a1,1,0,0,1,.76.37,1.59,1.59,0,0,1,0,2.05,1,1,0,0,1-.76.37,1,1,0,0,1-.75-.37,1.42,1.42,0,0,1-.31-.61c0-.35,0-.7.07-1.05A1.21,1.21,0,0,1,5.48,30.33ZM33,60.86A27.89,27.89,0,0,1,5.19,34.54a2.84,2.84,0,0,0,1,.21h0a3,3,0,0,0,2.26-1,3.6,3.6,0,0,0,0-4.71,3,3,0,0,0-2.9-.93A27.84,27.84,0,0,1,55.79,17a2.92,2.92,0,0,0-2.12.72,2.5,2.5,0,0,0,0,3.77,3,3,0,0,0,1.95.72,2.92,2.92,0,0,0,1.94-.72,2.82,2.82,0,0,0,.51-.64A27.86,27.86,0,0,1,33,60.86Z"/></g></svg>