<svg xmlns="http://www.w3.org/2000/svg" viewBox="0 0 64.15 69.61"><defs><style>.cls-1{fill:#272727;}</style></defs><g id="ICONS_BMS_active" data-name="ICONS BMS active"><path class="cls-1" d="M37.91,36.43,40.72,35l2.8,1.48L43,33.3l2.26-2.21-3.13-.45-1.4-2.84-1.4,2.84-3.14.45,2.27,2.21Zm2.73-4,.08-.15.07.15.17,0-.12.12,0,.16-.15-.08-.15.08,0-.16-.12-.12Z"/><path class="cls-1" d="M17.86,46.63A2.52,2.52,0,0,0,19.52,46a2.16,2.16,0,0,0,0-3.27,2.52,2.52,0,0,0-3.32,0,2.16,2.16,0,0,0,0,3.27A2.5,2.5,0,0,0,17.86,46.63Zm-.33-2.4a.54.54,0,0,1,.66,0,.2.2,0,0,1,.08.14.18.18,0,0,1-.08.14.51.51,0,0,1-.66,0,.16.16,0,0,1,0-.28Z"/><path class="cls-1" d="M28.69,39.49a3.82,3.82,0,0,0,2.54-1,3.18,3.18,0,0,0,0-4.83,3.87,3.87,0,0,0-5.07,0,3.18,3.18,0,0,0,0,4.83A3.81,3.81,0,0,0,28.69,39.49Zm-1.2-4.28a1.8,1.8,0,0,1,1.2-.44,1.84,1.84,0,0,1,1.21.44,1.17,1.17,0,0,1,0,1.83,1.86,1.86,0,0,1-2.41,0,1.17,1.17,0,0,1,0-1.83Z"/><path class="cls-1" d="M41.36,42.68a2.38,2.38,0,0,0,0,3.61,2.83,2.83,0,0,0,3.7,0,2.38,2.38,0,0,0,0-3.61A2.83,2.83,0,0,0,41.36,42.68Zm2.37,2.11a.81.81,0,0,1-1,0,.41.41,0,0,1-.16-.3.45.45,0,0,1,.16-.32.84.84,0,0,1,1,0,.42.42,0,0,1,.16.32A.38.38,0,0,1,43.73,44.79Z"/><path class="cls-1" d="M30.67,58c13.75,0,24.52-10.4,24.52-23.68,0-9.07-9.86-15.16-24.52-15.16S6.15,25.22,6.15,34.29C6.15,47.57,16.92,58,30.67,58Zm0-36.84c11.21,0,22.52,4.07,22.52,13.16C53.19,46.44,43.3,56,30.67,56S8.15,46.44,8.15,34.29C8.15,25.2,19.46,21.13,30.67,21.13Z"/><path class="cls-1" d="M64.15,3.77a3.77,3.77,0,1,0-4.77,3.61V28.27a3,3,0,0,0-1.54-.79C54.73,16.06,44.08,8.1,30.67,8.1S6.61,16.06,3.5,27.48C2,27.74,0,29.31,0,35.84c0,5.39,2.19,8.26,4.41,8.4a25,25,0,0,0,4.22,7v4l.09.2a24,24,0,0,0,22,14.2c8.92,0,16-7.07,21.81-14l.23-.28V51.26a25.33,25.33,0,0,0,4.22-7c1.19-.07,4.27-1,4.41-8.39v-.43h0v-28A3.76,3.76,0,0,0,64.15,3.77ZM30.67,10.1c14.88,0,26.1,10.49,26.1,24.4S45.55,58.91,30.67,58.91,4.57,48.42,4.57,34.5,15.79,10.1,30.67,10.1ZM2,35.84a12.7,12.7,0,0,1,.87-5.42,27.4,27.4,0,0,0-.3,4.08,26.71,26.71,0,0,0,1,7.11C2.75,40.72,2,38.88,2,35.84ZM30.67,67.61a22,22,0,0,1-20-12.84v-1.4a29,29,0,0,0,20,7.54,29,29,0,0,0,20-7.54v1.26C45.27,61.09,38.65,67.61,30.67,67.61ZM59.34,35.82c-.06,3.2-.74,5.13-1.57,6a27.05,27.05,0,0,0,.67-11.5C58.87,31,59.4,32.61,59.34,35.82Zm1-30.29a1.77,1.77,0,1,1,1.77-1.76A1.76,1.76,0,0,1,60.38,5.53Z"/></g></svg>