<svg xmlns="http://www.w3.org/2000/svg" viewBox="0 0 76.63 67.48"><defs><style>.cls-1{fill:#272727;}</style></defs><g id="ICONS_ESAG" data-name="ICONS ESAG"><rect class="cls-1" x="34.81" y="44.03" width="7.68" height="2"/><path class="cls-1" d="M55.34,44.89l.22-20.25L53.57,0l-5,12.86a21.35,21.35,0,0,0-19.83,0L23.74,0l-2,24.7-.4,20.18L0,54.12,38.33,67.36l.33.12,38-13.37ZM53.57,24.71,53.34,45,50.8,46.54l1-14.44L38.65,36.3,25.48,32.11l1,14.69L23.33,45l.4-20.2,0-.36,1.35,2.92c.08.18,2.18,4.61,7,4.61a9.48,9.48,0,0,0,4.56-1.29l2-1.11,2,1.11A9.45,9.45,0,0,0,45.24,32c4.77,0,6.87-4.43,7-4.61l1.35-2.93ZM28.57,48l-.89-13.1,11,3.5,11-3.5L48.7,47.8l-6.48,3.91H35.08ZM26.92,26.52l8.75,2.41a7.51,7.51,0,0,1-3.6,1C28.52,30,26.92,26.52,26.92,26.52Zm14.72,2.41,8.74-2.41S48.79,30,45.24,30A7.51,7.51,0,0,1,41.64,28.93ZM27.74,15.81l1-.68a19.09,19.09,0,0,1,19.79,0l1,.61,2.7-6.93,1.2,14.76-3.63,1L41.11,27l-2.46.68L36.2,27l-8.74-2.41-3.63-1L25,8.84ZM38.65,65.36,5.52,53.91l16.7-7.24,12.33,7h8.22l11.67-7,16.72,7.24Z"/></g></svg>