<svg xmlns="http://www.w3.org/2000/svg" viewBox="0 0 63.34 63.34"><defs><style>.cls-1{fill:#272727;}</style></defs><g id="ICONS_ESAG" data-name="ICONS ESAG"><path class="cls-1" d="M31.67-.33a32,32,0,1,0,32,32A32,32,0,0,0,31.67-.33Zm0,62a30,30,0,1,1,30-30A30,30,0,0,1,31.67,61.67ZM22.13,40.56,44.93,8.07l-1-.52A26.65,26.65,0,0,0,31.67,4.63,27,27,0,1,0,45,55.2l.51-.29V44H22.13ZM43.51,46v7.73A25,25,0,1,1,31.67,6.63,24.72,24.72,0,0,1,42,8.83L20.13,39.93V46Zm2-5v-17l.1-13L24.68,41Zm-2-2h-15L43.56,17.49Zm6.92-26.86-1.7-1.63V41h8.32l.23-.67a27.11,27.11,0,0,0-6.85-28.19ZM55.61,39H50.73V15.42A25.12,25.12,0,0,1,55.61,39ZM48.73,52.79l1.7-1.63a27.55,27.55,0,0,0,4.47-5.63L55.8,44H48.73Zm2-6.78H52.2c-.46.66-1,1.29-1.47,1.9Z"/></g></svg>