<svg xmlns="http://www.w3.org/2000/svg" width="62.131" height="59.081" viewBox="0 0 62.131 59.081"><defs><style>.a{fill:#272727;}</style></defs><g transform="translate(1.065 1)"><g transform="translate(-315.465 -582.862)"><path class="a" d="M366.831,613.288a4.938,4.938,0,0,0,.082,9.876h.081a4.938,4.938,0,1,0-.163-9.874Zm.137,7.875h-.055a2.938,2.938,0,0,1-.049-5.876h.05a2.954,2.954,0,0,1,2.937,2.945A2.918,2.918,0,0,1,366.968,621.163Z"/><path class="a" d="M366.979,608.676h-.414l-.015.014a9.5,9.5,0,0,0-8.979,9.535,9.61,9.61,0,0,0,2.476,6.436c-3.975,6.532-7.807,9.851-11.11,9.659-3.943-.254-7.357-5.477-8.913-8.279a4.653,4.653,0,0,0,.864-2.644,4.524,4.524,0,0,0-.034-.532c11.878-14.683,16.659-25.643,14.209-32.573a9.349,9.349,0,0,0-2.131-3.441,5.623,5.623,0,0,0-11.175,1.205,5.64,5.64,0,0,0,5.605,5.215,5.94,5.94,0,0,0,1.688-.259c.449,2.227.071,9.158-13.046,25.431a6.684,6.684,0,0,0-.845-.062,6.428,6.428,0,0,0-1.046.1c-13.153-16.307-13.528-23.242-13.078-25.462a5.49,5.49,0,0,0,1.652.258h0a5.707,5.707,0,1,0,.244-11.411H322.8a5.678,5.678,0,0,0-5.658,5,9.346,9.346,0,0,0-2.125,3.43c-2.464,6.979,2.393,18.032,14.438,32.855-.007.075-.011.149-.013.222l0,.053,0,.053a5.3,5.3,0,0,0,4.364,4.816c2.457,4.727,7.444,12.153,14.7,12.629q.367.024.736.024c5.76,0,11.348-4.453,16.613-13.237a9.227,9.227,0,0,0,1.116.069,9.549,9.549,0,1,0,0-19.1Zm0,17.1a7.3,7.3,0,0,1-1.432-.144l-.7-.144-.362.618c-5.18,8.857-10.536,13.169-15.841,12.818-6.515-.427-11.124-7.709-13.291-12.013l-.259-.514-.574-.034a3.288,3.288,0,0,1-3.073-2.98,2.474,2.474,0,0,1,.043-.332l.093-.463-.3-.366c-11.775-14.417-16.612-24.936-14.375-31.268a7.316,7.316,0,0,1,1.886-2.908l.292-.275.021-.4a3.638,3.638,0,1,1,1.842,3.437l-.9-.513-.483.914a4.826,4.826,0,0,0-.317.737c-1.01,3.026-.572,10.721,13.7,28.277l.417.512.636-.182a4.363,4.363,0,0,1,1.152-.171,4.492,4.492,0,0,1,1.01.127l.615.151.4-.491c14.222-17.515,14.657-25.2,13.649-28.23a4.892,4.892,0,0,0-.316-.733l-.483-.914-.9.513a3.563,3.563,0,0,1-1.761.467h-.009a3.622,3.622,0,1,1,3.614-3.885l.028.388.283.267a7.347,7.347,0,0,1,1.887,2.913c2.222,6.288-2.543,16.721-14.164,31.007l-.316.387.12.484a2.41,2.41,0,0,1,.071.553,2.631,2.631,0,0,1-.775,1.827l-.522.522.346.653c1.889,3.568,5.813,9.6,10.872,9.929,4.285.265,8.767-3.53,13.354-11.295l.408-.693-.588-.548a7.605,7.605,0,0,1-2.412-5.561,7.5,7.5,0,0,1,7.416-7.541h.09a7.549,7.549,0,0,1-.1,15.1Z"/></g></g></svg>