<svg xmlns="http://www.w3.org/2000/svg" viewBox="0 0 62 62"><defs><style>.cls-1{fill:#272727;}</style></defs><g id="ICONS_ESAG" data-name="ICONS ESAG"><path class="cls-1" d="M62,29.82H57.09A26,26,0,0,0,31.82,5.07V0h-2V5.09A26,26,0,0,0,5.26,30.18H0v2H5.27A26,26,0,0,0,30.18,56.92V62h2V56.92A26,26,0,0,0,57.1,31.82H62ZM32.18,54.92v-5h-2v5A24,24,0,0,1,7.27,32.18h4.85v-2H7.26A24,24,0,0,1,29.82,7.1v5h2v-5A24,24,0,0,1,55.09,29.82h-5.2v2H55.1A24,24,0,0,1,32.18,54.92Z"/><path class="cls-1" d="M45.74,18.35a38,38,0,0,0-6.94,2.22l-1.49-.67a20.27,20.27,0,0,0-7.42-1.66,8.39,8.39,0,0,0-7.3,3.46c-3,4.33-2.16,12.2,2.46,24.05l1.57,4L28.67,46s3.09-5.65,7.08-7.83c2.72-1.5,6-3.67,7-7.29.73-2.66.14-5.6-1.79-9a19.47,19.47,0,0,1,5.55-1.38C49.2,20.46,45.74,18.35,45.74,18.35Zm-11,18C30.21,38.88,26.91,45,26.91,45c-8.11-20.83-2.47-24.79,3-24.79a18.3,18.3,0,0,1,6.59,1.48c-.18.11-.37.2-.54.32-8.59,6-8.33,14.57-8.33,14.57,3.23-11.56,11.46-14,11.46-14C43.51,30.16,39.67,33.71,34.79,36.38Z"/></g></svg>