<svg xmlns="http://www.w3.org/2000/svg" width="61.505" height="62.004" viewBox="0 0 61.505 62.004"><defs><style>.a{fill:#272727;}</style></defs><path class="a" d="M180.019,616.955V583.613a5.006,5.006,0,0,0-5-5H158.945a5.006,5.006,0,0,0-5,5v33.342a5.006,5.006,0,0,0,5,5h16.074A5.006,5.006,0,0,0,180.019,616.955Zm-2,0a3,3,0,0,1-3,3H158.945a3,3,0,0,1-3-3V583.613a3,3,0,0,1,3-3h16.074a3,3,0,0,1,3,3Zm-11.035-13.247a6.5,6.5,0,1,0,6.5,6.5A6.508,6.508,0,0,0,166.984,603.708Zm0,11a4.5,4.5,0,1,1,4.5-4.5A4.5,4.5,0,0,1,166.984,614.708Zm0-30.273a7.769,7.769,0,1,0,7.769,7.769A7.778,7.778,0,0,0,166.985,584.435Zm0,13.538a5.769,5.769,0,1,1,5.769-5.769A5.776,5.776,0,0,1,166.985,597.973ZM151.773,627.55l-.5-11.329-.663.029a5.687,5.687,0,1,0-6.925,1.714l-.156.068,4.548,10.439.034.06a4.98,4.98,0,0,0,.935,1.021,4.848,4.848,0,0,0,.017,3.049,3.377,3.377,0,0,0,2.045,1.919c1.573.588,3.927.038,6.42-.545,2.031-.474,5.1-1.188,5.693-.407a.842.842,0,0,1,0,1.075c-.783,1.218-4.04,2.7-9.438,1.484-1.665-.375-3.052-.708-4.22-.989-4.591-1.1-6.137-1.477-7.851-.182a1,1,0,0,0,1.207,1.6c.924-.7,1.957-.486,6.176.53,1.176.283,2.573.619,4.249,1a19.283,19.283,0,0,0,4.237.5c3.743,0,6.324-1.3,7.322-2.852a2.838,2.838,0,0,0-.087-3.365c-1.38-1.815-4.467-1.094-7.74-.332-2,.466-4.262.992-5.267.619a1.346,1.346,0,0,1-.882-.778A3.059,3.059,0,0,1,151,629.99a1.118,1.118,0,0,0,.416-.548,4.516,4.516,0,0,0,.36-1.871ZM142.4,612.813a3.69,3.69,0,1,1,3.69,3.69A3.694,3.694,0,0,1,142.4,612.813Zm3.69,5.69a5.655,5.655,0,0,0,3.241-1.02l.435,9.848-3.85-8.837C145.969,618.5,146.026,618.5,146.085,618.5Zm41.113,8.252a4.5,4.5,0,1,0,4.5,4.5A4.5,4.5,0,0,0,187.2,626.755Zm0,6.992a2.5,2.5,0,1,1,2.5-2.5A2.5,2.5,0,0,1,187.2,633.747Zm10.359-22.766a3.452,3.452,0,0,0-3.718-.552l2.378-16.345,2.429-.615,3.254-7.14-6.151-.79-2.795,3.552-2.723,3.128-2.515,17.325c-.08-.1-.155-.194-.223-.286a1.922,1.922,0,0,0-1.35-.945c-.743-.064-1.4.4-2.354,1.284-2.281,2.132-2.043,3.581-1.5,5.256a5.454,5.454,0,0,1,.359,2.61c-.422,3.285-1.493,4.255-2.627,5.282a7.7,7.7,0,0,0-2.892,5.49c-.549,4.261.815,7.871,3.839,10.168a11.105,11.105,0,0,0,6.683,2.214,10.745,10.745,0,0,0,4.182-.833,9.149,9.149,0,0,0,5.612-7.659c.461-3.679.086-4.8-.586-6.2a7.774,7.774,0,0,1-.669-1.83c-.529-2.31,1.873-4.533,1.9-4.554l.151-.171C199.515,617.537,201.012,613.427,197.557,610.981Zm-5.431-17.893,2.368-2.723,2.125-2.7,2.336.3-1.731,3.8-2.794.709-2.678,18.4a8.412,8.412,0,0,1-1.6-.115c-.208-.034-.4-.073-.57-.117Zm4.524,25.06c-.555.538-3.13,3.233-2.406,6.393a9.855,9.855,0,0,0,.814,2.247c.48,1,.827,1.727.4,5.092a7.224,7.224,0,0,1-4.406,6.062,9.192,9.192,0,0,1-8.876-1.132c-2.43-1.845-3.518-4.8-3.066-8.319a5.728,5.728,0,0,1,2.253-4.263c1.289-1.169,2.75-2.494,3.266-6.509a7.312,7.312,0,0,0-.441-3.488c-.4-1.233-.569-1.743.959-3.171a8.6,8.6,0,0,1,.727-.62l.009.011a5.4,5.4,0,0,0,3.943,2.285,8.156,8.156,0,0,0,4.608-.4,1.582,1.582,0,0,1,1.963.277C198.914,614.393,197.008,617.595,196.65,618.148Z" transform="translate(-140.395 -578.613)"/></svg>