<svg xmlns="http://www.w3.org/2000/svg" width="61.999" height="51.921" viewBox="0 0 61.999 51.921"><defs><style>.a{fill:#272727;}</style></defs><path class="a" d="M110.29,615.672c-.254-17.181-13.211-30.076-30.348-30.076-17.089,0-30.02,12.822-30.346,29.931a1.758,1.758,0,0,0-.754,1.442v18.789a1.763,1.763,0,0,0,1.762,1.759h3.778v-.028h1.074a7.473,7.473,0,0,0,7.462-7.425v-7.419a7.462,7.462,0,0,0-7.461-7.46h-.276c.487-13.751,10.964-24,24.76-24s24.284,10.26,24.76,24.021h-.72a7.1,7.1,0,0,0-7.09,7.091v8.13a7.1,7.1,0,0,0,7.09,7.09h3.329v-.024h1.77a1.763,1.763,0,0,0,1.761-1.761V616.945A1.751,1.751,0,0,0,110.29,615.672ZM52.382,635.517h-1.54v-18.31h1.54Zm2.936-18.332h.138a5.463,5.463,0,0,1,5.462,5.462v7.412a5.47,5.47,0,0,1-5.468,5.43h-.132Zm24.623-28c-14.943,0-26.283,11.119-26.76,26.022H51.6C52.082,599.4,64.1,587.6,79.942,587.6s27.848,11.792,28.336,27.589H106.7C106.213,600.293,94.877,589.185,79.941,589.185Zm18.95,41.242V622.3a5.1,5.1,0,0,1,5.09-5.091H105.3v18.311h-1.321A5.1,5.1,0,0,1,98.891,630.427Zm9.95,5.066H107.31V617.185h1.531Z" transform="translate(-48.842 -585.596)"/></svg>