<svg xmlns="http://www.w3.org/2000/svg" width="62.794" height="62.134" viewBox="0 0 62.794 62.134"><defs><style>.a{fill:#272727;}</style></defs><g transform="translate(-42.21 -499.156)"><path class="a" d="M74.758,538.861a2.615,2.615,0,1,0-2.614-2.615A2.619,2.619,0,0,0,74.758,538.861Zm0-3.229a.615.615,0,1,1-.614.614A.615.615,0,0,1,74.758,535.632Z"/><path class="a" d="M74.521,531.743a2.027,2.027,0,1,0-2.028-2.027A2.029,2.029,0,0,0,74.521,531.743Z"/><circle class="a" cx="2.028" cy="2.028" r="2.028" transform="translate(81.709 538.037)"/><path class="a" d="M83.7,548a2.615,2.615,0,1,0,2.615,2.614A2.618,2.618,0,0,0,83.7,548Zm0,3.229a.615.615,0,1,1,.615-.615A.616.616,0,0,1,83.7,551.232Z"/><path class="a" d="M83.611,546.807a2.168,2.168,0,1,0-2.168-2.168A2.17,2.17,0,0,0,83.611,546.807Zm0-2.336a.168.168,0,0,1,.168.168c0,.185-.336.185-.336,0A.168.168,0,0,1,83.611,544.471Z"/><path class="a" d="M105,507.6l-.324-1.973-12.244,2.012-3.7,8.29H65.514l-.958-4.462L83.7,506.248l-24.1-7.092L42.21,517.568,62.624,512l.845,3.935H61.824l2.67,45.357h25.92l2.671-45.357H90.927l2.9-6.492Zm-44.739-3.232,1.486,5.44,1.93-.528-1.442-5.278L68,508.458,57.6,511.3Zm8.724,3.817.723-.936-6.343-4.9,13,3.824ZM58.6,503.117l-3.087,8.023,1.1.424-8.068,2.2Zm29.24,14.816-2.354,5.276-18.465-.239-1.082-5.037Zm-22.87,5.011-.736-.01-.277-4.706Zm-.618,1.992,1.049.014,4.525,21.067,1.955-.42-4.429-20.621L84.6,525.2l-13.379,29.99c-1.718-.207-3.43-.494-5.136-.84Zm2.022,34.354-.17-2.887a65.167,65.167,0,0,0,22.459.512l-.14,2.375Zm22.41-4.418a64.439,64.439,0,0,1-15.466.52l13.458-30.166,3.75.048Zm2.175-36.939-.329,5.582,0-.24-2.969-.038,2.366-5.3Z"/></g></svg>