<svg xmlns="http://www.w3.org/2000/svg" viewBox="0 0 83.38 49.47"><defs><style>.cls-1{fill:#272727;}</style></defs><g id="ICONS_ESAG" data-name="ICONS ESAG"><path class="cls-1" d="M58.65,0a24.57,24.57,0,0,0-17,6.72A24.74,24.74,0,1,0,24.74,49.47a24.56,24.56,0,0,0,17-6.72A24.74,24.74,0,1,0,58.65,0Zm0,47.47a22.56,22.56,0,0,1-16.24-6.82l-.72-.73-.71.73a22.73,22.73,0,0,1-34.6-2.52c1.66-.05,4.14-.16,7-.41a38.19,38.19,0,0,0,5.84-1,33.42,33.42,0,0,1,8.08-1,35.88,35.88,0,0,1,10,1.75,28.33,28.33,0,0,0,7.14,1.38h.2a58,58,0,0,0,11.94-1.23,35.89,35.89,0,0,1,7.25-.85c6.57,0,11.4.37,13.7.58A22.75,22.75,0,0,1,58.65,47.47Zm20-12c-1.73-.18-7.1-.66-14.83-.68a36.23,36.23,0,0,0-7.63.88,54.49,54.49,0,0,1-11.76,1.2,27.18,27.18,0,0,1-6.61-1.31A39.47,39.47,0,0,0,27.3,33.75a35.57,35.57,0,0,0-8.51,1,38.43,38.43,0,0,1-5.57.93c-3.68.32-6.69.41-8.13.43a22.46,22.46,0,0,1-2.93-8.81c1.15-.09,3-.23,5.42-.35,0,.1,0,.18,0,.25l-.13.61h3.27l-.14-.61s0-.15-.07-.37l3.81-.1a2.2,2.2,0,0,0,1.88.53c-.19,1.05-.55,3-.7,3.8l-.13.6h4.19l-.13-.61A31,31,0,0,1,18.8,27a4.45,4.45,0,0,0,1-.13,56.39,56.39,0,0,1,5.72.76l1.58.27c-.08.43-.16.84-.21,1.07l-.12.6h3.15l-.13-.61a6,6,0,0,1-.14-.68,64.45,64.45,0,0,0,7.69.56c-.17,1-.43,2.4-.56,3l-.12.6h3.85l-.14-.61a30,30,0,0,1-.47-3.07,41.24,41.24,0,0,0,6.41-1.28A43.13,43.13,0,0,1,57.39,25.7c.47,0,.91,0,1.33,0a1.72,1.72,0,0,1,.05.37,1.6,1.6,0,0,0,1.59,2.07c-.12.71-.32,1.77-.41,2.22l-.12.6H63l-.13-.61a19.35,19.35,0,0,1-.36-2.46,2,2,0,0,0,1.13-.38.73.73,0,0,0,.23-.38c.06-.12.1-.23.14-.33s.11-.27.17-.31a1,1,0,0,0,.22-.19c.68.13,1.34.25,2,.39a47.88,47.88,0,0,0,6.31,1c3.66.28,6.72.39,8.46.43A22.4,22.4,0,0,1,78.68,35.48ZM7,21.29a.68.68,0,0,1,.14-.69.66.66,0,0,1,.71-.17,1,1,0,0,0,.91-.15,1,1,0,0,0,.38-.63.67.67,0,0,1,.58-.15.65.65,0,0,1,.51.47,1.67,1.67,0,0,0,1,1.14.65.65,0,0,1,.43.53.68.68,0,0,1-.31.65,1.58,1.58,0,0,0-.58.81,2.84,2.84,0,0,1-.14.32l0,.08a2.16,2.16,0,0,1-.94.11l-.54-.05v.26l-.53,0a2.06,2.06,0,0,0-.56.06.62.62,0,0,1-.67-.18A.65.65,0,0,1,7.25,23l0-.25A4.85,4.85,0,0,0,7,21.29Zm2.45,5.57H8.63c.18-1,.45-2.49.45-2.49L9.14,24v.08A15.66,15.66,0,0,0,9.44,26.86Zm10.79-1.78a4.13,4.13,0,0,1-.22.49l-.06.12v0a3,3,0,0,1-1.6.24l-.54,0v.54a24.22,24.22,0,0,0,.48,4.25H16.54c.27-1.4.72-3.9.72-3.9l.09-.55-.55,0a2.21,2.21,0,0,0-.74.08A1.19,1.19,0,0,1,14.84,26a1.16,1.16,0,0,1-.24-1.24l0-.29a6.55,6.55,0,0,0-.42-2,1.25,1.25,0,0,1,.25-1.24,1.24,1.24,0,0,1,1.28-.32,1.22,1.22,0,0,0,1.61-1,1.13,1.13,0,0,1,1.09-.34,1.17,1.17,0,0,1,.93.86,2.2,2.2,0,0,0,1.39,1.5,1.13,1.13,0,0,1,.77,1A1.22,1.22,0,0,1,21,24,2,2,0,0,0,20.23,25.08Zm6.17-1.77a.64.64,0,0,1,.13-.62A.56.56,0,0,1,27,22.5l.22,0a1,1,0,0,0,.89-.14,1,1,0,0,0,.36-.6.59.59,0,0,1,.51-.14.6.6,0,0,1,.46.43,1.59,1.59,0,0,0,1,1.09.59.59,0,0,1,.38.48.61.61,0,0,1-.28.59A1.45,1.45,0,0,0,30,25a2,2,0,0,1-.14.3l0,.07a2.07,2.07,0,0,1-.87.09l-.54-.05v.25l-.47,0a1.37,1.37,0,0,0-.54.06.6.6,0,0,1-.73-.79l0-.25A4.46,4.46,0,0,0,26.4,23.31Zm2.26,5.24H28l.42-2.32h0A16.91,16.91,0,0,0,28.66,28.55Zm14.46-4.11,1.53-1.61,5.23,0,7.85-6.1,6.41,5.41,2.32-1.74,3.7,3.18,3.18-.09L77,27c-1.27-.06-2.7-.15-4.24-.27a46.51,46.51,0,0,1-6.17-.94l-1.7-.33a1.62,1.62,0,0,0,0-.44,1.56,1.56,0,0,0-1-1.3.59.59,0,0,1-.37-.41,1.6,1.6,0,0,0-1.24-1.15,1.58,1.58,0,0,0-1.58.6l-.1.13V23a1.61,1.61,0,0,0-1.66.44,1.63,1.63,0,0,0-.41,1.27l-1.07,0h-.2A45.79,45.79,0,0,0,46,26.5c-1.52.39-3,.76-4.39,1a.56.56,0,0,0,.07-.19c.08-.15.14-.31.2-.45s.17-.42.3-.5A2,2,0,0,0,43.12,24.44Zm18.36,2.43v.25l-.47,0a1.94,1.94,0,0,0-.54.06.58.58,0,0,1-.61-.16.59.59,0,0,1-.12-.62l0-.25a4.39,4.39,0,0,0-.28-1.36.6.6,0,0,1,.13-.62.56.56,0,0,1,.43-.19l.22,0a1,1,0,0,0,.88-.14,1,1,0,0,0,.37-.6.56.56,0,0,1,.51-.14.6.6,0,0,1,.46.43h0a1.6,1.6,0,0,0,1,1.09.58.58,0,0,1,.39.48.62.62,0,0,1-.28.59,1.48,1.48,0,0,0-.56.78,1.82,1.82,0,0,1-.13.3l0,.06a1.93,1.93,0,0,1-.87.1ZM61.75,30h-.7l.42-2.32h0A16.91,16.91,0,0,0,61.75,30ZM41.67,25.53a1.8,1.8,0,0,0-.69,1,3.15,3.15,0,0,1-.19.43l-.06.12h0a2.74,2.74,0,0,1-1.35.19l-.54-.05v.53a20,20,0,0,0,.42,3.7h-1.4c.24-1.25.62-3.38.62-3.38l.09-.55-.55,0a1.94,1.94,0,0,0-.67.07,1,1,0,0,1-1.22-1.31l0-.27a5.77,5.77,0,0,0-.37-1.8,1,1,0,0,1,1.28-1.29,1.17,1.17,0,0,0,1-.18,1.16,1.16,0,0,0,.44-.76,1,1,0,0,1,.9-.27,1,1,0,0,1,.77.72,2,2,0,0,0,1.26,1.36,1,1,0,0,1,.65.8A1,1,0,0,1,41.67,25.53ZM78.51,27,73.73,22.5l-3.21.09-4-3.46-2.34,1.75-6.41-5.42-8.22,6.39-5.32,0-1.52,1.6a2,2,0,0,0-.89-.63,1,1,0,0,1-.63-.68,2,2,0,0,0-3.52-.69l-.1.13v.17a.21.21,0,0,1-.06.17.24.24,0,0,1-.17,0,2,2,0,0,0-2.08.56,2,2,0,0,0-.4,2.05,5,5,0,0,1,.3,1.46,2,2,0,0,0,.32,1.8,57,57,0,0,1-6-.54c0-.25-.06-.51-.08-.75a2,2,0,0,0,1.13-.38.73.73,0,0,0,.23-.38c.06-.11.1-.22.15-.33s.11-.27.17-.31a1.59,1.59,0,0,0,.72-1.55,1.56,1.56,0,0,0-1-1.3.56.56,0,0,1-.38-.41,1.6,1.6,0,0,0-2.82-.55l-.1.13v.17a1.61,1.61,0,0,0-1.66.44,1.59,1.59,0,0,0-.32,1.65,3.48,3.48,0,0,1,.21,1A1.62,1.62,0,0,0,26,26.22a1.59,1.59,0,0,0,1.24.51l0,.16-1.59-.26c-1.57-.27-3.11-.5-4.73-.66h0c.09-.17.16-.35.23-.51a1.09,1.09,0,0,1,.37-.6,2.22,2.22,0,0,0,1-2.14,2.16,2.16,0,0,0-1.43-1.79,1.17,1.17,0,0,1-.76-.81h0a2.19,2.19,0,0,0-3.87-.76l-.1.13v.17a.28.28,0,0,1-.09.24.27.27,0,0,1-.25,0,2.22,2.22,0,0,0-2.29.61,2.17,2.17,0,0,0-.45,2.26,5.8,5.8,0,0,1,.35,1.66v0a2.19,2.19,0,0,0,0,1.34c-1.18,0-2.3.05-3.34.09-.06-.42-.12-.87-.14-1.28a2.06,2.06,0,0,0,1.21-.4.72.72,0,0,0,.23-.39,3.35,3.35,0,0,0,.15-.35c.09-.21.12-.29.2-.34a1.66,1.66,0,0,0,.75-1.61,1.64,1.64,0,0,0-1.09-1.36.64.64,0,0,1-.42-.45,1.67,1.67,0,0,0-1.28-1.2,1.65,1.65,0,0,0-1.64.63l-.14.16v.17a1.67,1.67,0,0,0-2.07,2.17,3.5,3.5,0,0,1,.23,1.08A1.66,1.66,0,0,0,8,24.87L7.77,26c-2.55.12-4.5.27-5.71.37C2,25.82,2,25.28,2,24.74A22.74,22.74,0,0,1,41,8.82l.71.73.72-.73a22.73,22.73,0,0,1,39,15.92,23.21,23.21,0,0,1-.12,2.37C80.56,27.09,79.63,27.07,78.51,27Z"/></g></svg>