<svg xmlns="http://www.w3.org/2000/svg" width="63.106" height="61.043" viewBox="0 0 63.106 61.043"><defs><style>.a{fill:#272727;}</style></defs><path class="a" d="M245.368,605.589a3.077,3.077,0,0,0-.947-2.011,2.779,2.779,0,0,0-2.162-.76,2.925,2.925,0,0,0-.745.208l-.177-2.114a3.1,3.1,0,0,0-.949-2.006,2.764,2.764,0,0,0-2.164-.756,2.9,2.9,0,0,0-.9.284,3.093,3.093,0,0,0-.7-1,2.758,2.758,0,0,0-2.161-.749,2.925,2.925,0,0,0-2.5,3.225l.055.653a2.785,2.785,0,0,0-3.378,3.155l.7,8.346-.991-1.1a3.3,3.3,0,0,0-4.619-.577,3.265,3.265,0,0,0-.661,4.534l8.028,10.208.586,7.7a6.767,6.767,0,0,0,6.733,6.244c.171,0,.344-.006.517-.019a6.757,6.757,0,0,0,6.225-7.25l-.556-7.315,1.6-8.91ZM224.7,613.773a1.3,1.3,0,0,1,1.042-2.078,1.3,1.3,0,0,1,.978.441l5.032,5.611-.249-2.967c-.035-.42-.1-1.535-.148-2.475l-.729-8.795a.915.915,0,0,1,.727-1.02.746.746,0,0,1,.562.21,1.093,1.093,0,0,1,.336.692l0,.025,1.994-.159,0-.043-.295-3.516a.92.92,0,0,1,.723-1.027.749.749,0,0,1,.562.206,1.117,1.117,0,0,1,.345.723l.132,1.584q.006.116.021.234l1.988-.211-.012-.145a.914.914,0,0,1,.723-.924.7.7,0,0,1,.57.212,1.093,1.093,0,0,1,.34.72l.4,4.776c0,.082.01.164.021.247l1.988-.213-.012-.152a.914.914,0,0,1,.732-.923.744.744,0,0,1,.562.213,1.1,1.1,0,0,1,.34.726l.814,9.741-1.412,7.842-9.916.813-8.1-10.281Zm17.324,21.645a4.757,4.757,0,0,1-8.353-2.738l-.5-6.556,9.487-.722.5,6.557A4.725,4.725,0,0,1,242.026,635.418ZM284.3,610.425l-.017-.014-.035-.026a3.283,3.283,0,0,0-4.583.537l-1.027,1.142.693-8.3a2.941,2.941,0,0,0-2.56-3.264,2.754,2.754,0,0,0-.812.062l.049-.6a2.946,2.946,0,0,0-2.558-3.277,2.728,2.728,0,0,0-2.087.75,3.106,3.106,0,0,0-.714,1.017,3.059,3.059,0,0,0-.968-.3,2.754,2.754,0,0,0-2.087.756,3.1,3.1,0,0,0-.956,2.006l-.178,2.133a3.1,3.1,0,0,0-.81-.226,2.7,2.7,0,0,0-2.085.755,3.09,3.09,0,0,0-.958,2.012l-.835,10,1.607,8.928-.556,7.3a6.765,6.765,0,0,0,6.223,7.251h0c.174.012.346.019.517.019a6.766,6.766,0,0,0,6.733-6.243l.588-7.708,7.977-10.137A3.287,3.287,0,0,0,284.3,610.425Zm-10,22.256a4.756,4.756,0,1,1-9.485-.723l.5-6.555,9.486.723Zm8.968-18.9-8.156,10.361-9.916-.813-1.412-7.842.815-9.75a1.1,1.1,0,0,1,.352-.728.794.794,0,0,1,.485-.209.93.93,0,0,1,.8.932l-.013.15,1.988.212c.011-.081.018-.163.022-.243l.4-4.786a1.1,1.1,0,0,1,.347-.72.72.72,0,0,1,.493-.213.926.926,0,0,1,.793.932l-.012.144,1.988.212q.015-.117.021-.234l.133-1.579V599.6a1.122,1.122,0,0,1,.35-.727.718.718,0,0,1,.492-.208.94.94,0,0,1,.783,1.079l-.29,3.47,0,.045,1.993.158,0-.028a1.091,1.091,0,0,1,.345-.7.634.634,0,0,1,.491-.207.934.934,0,0,1,.783,1.068l-.715,8.563-.063,1.116c-.036.655-.07,1.264-.094,1.549l-.249,2.967,4.98-5.547a1.314,1.314,0,0,1,1.813-.242l.019.015A1.29,1.29,0,0,1,283.269,613.78Zm-29.282-31.673a2.645,2.645,0,1,0,2.644,2.644A2.647,2.647,0,0,0,253.987,582.107Zm0,4.289a1.645,1.645,0,1,1,1.644-1.645A1.646,1.646,0,0,1,253.987,586.4Zm17.439-4.432H260.091a6.705,6.705,0,0,0-12.209,0H236.549v5.574h11.332a6.706,6.706,0,0,0,12.211,0h11.334Zm-32.877,3.574v-1.574h8.77a6.219,6.219,0,0,0,0,1.574Zm15.438,3.932a4.718,4.718,0,1,1,4.718-4.719A4.724,4.724,0,0,1,253.987,589.47Zm15.439-3.932h-8.772a6.1,6.1,0,0,0,0-1.574h8.772Z" transform="translate(-222.429 -578.033)"/></svg>