<svg xmlns="http://www.w3.org/2000/svg" width="80.194" height="50.622" viewBox="0 0 80.194 50.622"><defs><style>.a{fill:#272727;}</style></defs><path class="a" d="M282.973,546.082l-.038,2a74.353,74.353,0,0,1-9.877-.849,81.521,81.521,0,0,0-14.79-1.435,36.41,36.41,0,0,0-10.734,2.009,28.51,28.51,0,0,1-7.529,1.577h-.21a37.144,37.144,0,0,1-12.858-2.325,23.046,23.046,0,0,0-7.615-1.577,87.919,87.919,0,0,0-16.193,1.366l-.35-1.969a91.1,91.1,0,0,1,16.544-1.4,25.363,25.363,0,0,1,8.241,1.677A34.939,34.939,0,0,0,240,547.384a27.228,27.228,0,0,0,6.965-1.494c3.379-1.01,7.235-2.164,11.327-2.092a83.163,83.163,0,0,1,15.108,1.465A72.558,72.558,0,0,0,282.973,546.082Zm-67.917-10.465a29.546,29.546,0,0,0,5.822-1.345,24.242,24.242,0,0,1,7.9-1.374h.172c3.392,0,6.693,1.272,9.61,2.4,2.545.98,4.949,1.907,7.144,1.914a43.165,43.165,0,0,0,12.036-1.706,28.192,28.192,0,0,1,7.126-1.156,103.865,103.865,0,0,1,14.989,1l.279-1.981a105.546,105.546,0,0,0-15.27-1.022,30.1,30.1,0,0,0-7.626,1.22,41.433,41.433,0,0,1-11.53,1.642c-1.824-.006-4.061-.868-6.429-1.78-3.135-1.209-6.689-2.588-10.527-2.529a26.225,26.225,0,0,0-8.469,1.465,27.575,27.575,0,0,1-5.465,1.269,84.127,84.127,0,0,1-8.916.609l.03,2A86.155,86.155,0,0,0,215.056,535.617Zm50.452-9.9a62.317,62.317,0,0,1,11.484.948l-7.46-7.03L264,524.761l-9.833-12.432-3.856,2.6-2.464-4.411-.261.64-2.4-.979-3.668,2.443-3.1-2.065L229.4,524.666l-9.1-6.239-9.173,9.649-1.449-1.377,10.346-10.886,8.8,6.035,14.74-23.085,7.426,13.293,3.589-2.422,9.642,12.191,5.32-4.926,9.534,8.985-.932.989c.277.053.558.092.834.149l-.406,1.959a60.666,60.666,0,0,0-13.065-1.263,73.44,73.44,0,0,1-8.205-.679,72.788,72.788,0,0,0-9.074-.708,50.076,50.076,0,0,0-11.688,1.208,25.5,25.5,0,0,1-10.431.442c-8.6-1.22-16.142,3.484-16.217,3.533l-1.073-1.69c.333-.21,8.243-5.141,17.571-3.823a23.857,23.857,0,0,0,9.744-.421,52.423,52.423,0,0,1,12.094-1.249,74.4,74.4,0,0,1,9.315.723A70.892,70.892,0,0,0,265.508,525.718Zm-18.686-17.027-3.369-6.032-3.968,6.214,2.027,1.349,3.442-2.293Z" transform="translate(-202.779 -498.763)"/></svg>