<svg xmlns="http://www.w3.org/2000/svg" width="60.206" height="61.897" viewBox="0 0 60.206 61.897"><defs><style>.a{fill:#272727;}</style></defs><path class="a" d="M186.763,488.166a2,2,0,0,0-.521-1.492c-2.6-2.517-20.159,6.031-29.632,15.5a68.565,68.565,0,0,0-8.991,10.924l0-.018L136.524,515.1l-4.676,4.675L142.3,523.57a34.094,34.094,0,0,0-7.584,6.221c-5.443,5.749-8.053,16.721-8.162,17.186l.97.226.285.922c.456-.141,11.212-3.51,16.565-9.339a35.454,35.454,0,0,0,5.353-7.365l3.549,9.8,4.675-4.676,2.035-11.1-.259-.047a68.361,68.361,0,0,0,11.038-9.067C180.068,507.036,186.8,492.3,186.763,488.166ZM137.5,516.96l8.741-1.6a27.1,27.1,0,0,0-2.78,6.5l-7.972-2.889Zm7.545,8.869,2.172,1.888.067.067a17.144,17.144,0,0,1-3.233,4.723c-1.921,2.093-5.344,3.641-7.359,4.424.652-2.079,1.944-5.516,3.867-7.544A17.168,17.168,0,0,1,145.042,525.829Zm-2.139,11.6c-3.744,4.078-10.652,6.966-13.9,8.165.97-3.334,3.366-10.411,7.171-14.432.656-.692,1.285-1.311,1.889-1.874a29.2,29.2,0,0,0-3.817,8.938l1.143.266.284.922c.27-.084,6.658-2.078,9.851-5.56a24.743,24.743,0,0,0,1.643-1.984A36.26,36.26,0,0,1,142.9,537.433Zm13.2-1.863-2.011,2.01-2.939-8.113a27.557,27.557,0,0,0,6.592-2.857Zm-5.4-8.052-2.659-2.311-2.69-2.69c1.233-5.07,6.059-12.323,12.673-18.932,9.872-9.865,24.211-15.563,26.753-15.41.142,2.549-5.54,16.864-15.423,26.74C162.863,521.412,155.759,526.176,150.7,527.518Z" transform="translate(-126.557 -486.228)"/></svg>