<svg xmlns="http://www.w3.org/2000/svg" width="121.999" height="121.963" viewBox="0 0 121.999 121.963"><defs><style>.a{fill:#fff;}</style></defs><g transform="translate(-221.955 -180.962)"><path class="a" d="M289.43,302.615a61.122,61.122,0,1,0-8.2.3A75.748,75.748,0,0,0,289.43,302.615Zm.411-2.068c2.294-10.79,7.965-26.17,22.007-35.644a1,1,0,0,0,.416-1.035,4.975,4.975,0,0,0,3.2,1.148,4.359,4.359,0,1,0-4.755-4.341,4.056,4.056,0,0,0,.824,2.437.989.989,0,0,0-.8.133c-13.328,8.993-19.384,23.055-22.142,33.923,2.237-13.269,6.979-33.734,16.762-53.77a1,1,0,0,0-1.8-.878,196.013,196.013,0,0,0-14.58,42.387c2.527-27.926,7.425-61.923,20.48-76.685a1,1,0,0,0-1.5-1.326c-14.91,16.861-19.413,57.423-21.736,86.865L283.953,251.2a1,1,0,1,0-2,.106l2.112,39.686c-.619-4.21-1.345-8.8-2.18-13.552-4.371-24.838-9.49-41.806-15.215-50.433a1,1,0,0,0-1.666,1.106c8.281,12.48,13.872,41.742,16.934,62.262-3.713-15.113-10.088-30.553-20.985-41.515-10.351-10.411-19.772-11.815-20.168-11.87a1,1,0,0,0-.273,1.982c.318.043,27.82,4.456,39.481,51.775-7.134-21.088-17.662-27.188-18.4-27.6a3.645,3.645,0,0,0,1.259-2.72,4.173,4.173,0,1,0-4.158,3.8,4.425,4.425,0,0,0,1.411-.241.993.993,0,0,0,.513.9c.157.085,13.487,7.656,20.156,36.011a58.98,58.98,0,1,1,9.068-.36ZM312.7,260.675a2.792,2.792,0,1,1,2.755,2.341A2.576,2.576,0,0,1,312.7,260.675Zm-54.011,1.56a1.834,1.834,0,1,1,2.158-1.8A2.006,2.006,0,0,1,258.693,262.235Z"/><path class="a" d="M270.983,206.831l-8.875,2.944-7.445-5.669.045,9.366-7.684,5.329,8.913,2.854,2.691,8.941,5.473-7.59,9.344.19-5.535-7.524Zm-1.553,14.283-6.338-.13-3.717,5.156-1.826-6.069-6.052-1.938,5.216-3.618-.031-6.357,5.054,3.848,6.026-2-2.086,6Z"/><path class="a" d="M312.895,229.185l-4.319,2.936-4.883-1.89,1.474,5.026-3.31,4.076,5.234.14,2.834,4.408,1.776-4.939,5.053-1.345-4.14-3.2Zm-2.721,8.094-.759,2.111L308.2,237.5l-2.231-.06,1.413-1.739-.628-2.143,2.078.805,1.85-1.257-.12,2.232,1.766,1.365Z"/><path class="a" d="M232.655,232a6.009,6.009,0,1,0,5.429,5.981A5.731,5.731,0,0,0,232.655,232Zm0,9.962a4.025,4.025,0,1,1,3.429-3.981A3.74,3.74,0,0,1,232.655,241.96Z"/><path class="a" d="M313.62,199.062a4.359,4.359,0,1,0,4.755,4.341A4.567,4.567,0,0,0,313.62,199.062Zm0,6.682a2.372,2.372,0,1,1,2.755-2.341A2.576,2.576,0,0,1,313.62,205.744Z"/><path class="a" d="M282.954,235.69c-3.822,0-6.932,2.813-6.932,6.272s3.11,6.272,6.932,6.272,6.93-2.814,6.93-6.272S286.775,235.69,282.954,235.69Zm0,10.544c-2.72,0-4.932-1.916-4.932-4.272s2.212-4.272,4.932-4.272,4.93,1.916,4.93,4.272S285.672,246.234,282.954,246.234Z"/></g></svg>